REM MD5 8b64b73e725f24829068fee96661335d
FILE "Defcon 5 (France).bin" BINARY
  TRACK 01 MODE2/2352
    INDEX 01 00:00:00
  TRACK 02 AUDIO
    INDEX 00 35:09:16
    INDEX 01 35:11:16
  TRACK 03 AUDIO
    INDEX 00 47:12:23
    INDEX 01 47:14:23
REM LEADOUT 50:21:16
